Patient4_TMGait_0pt4_02_right_42_EMG.mot
version=1
nRows=36
nColumns=33
inDegrees=no
endheader
time	1LAddLong	2LGlutMax	3LGlutMed	4LIliopsoas	5LSemiMemb	6LBicFemLong	7LRecFem	8LVastMed	9LVastLat	10LGasMed	11LTibAnt	12lTibPost	13LPeroneusLong	14LSol	15LExtDigLong	16LFlexDigLong	17RAddLong	18RGlutMax	19RGlutMed	20RIliopsoas	21RSemiMemb	22RBicFemLong	23RRecFem	24RVastMed	25RVastLat	26RGasMed	27RTibAnt	28RTibPost	29RPeroneusLong	30RSol	31RExtDigLong	32RFlexDigLong
55.33	0.011444	0.068207	0.027466	-0.015106	-0.005035	0.00885	0.027771	-0.01709	0.052795	0.13916	0.010986	0.004272	-0.003662	0.089722	-0.12024	0.1152	-0.005798	0.015106	0.13306	0.10437	-0.042572	-0.059357	0.001373	-0.092621	-0.024872	-0.006256	-0.10666	-0.015106	-0.012665	-0.017395	-0.001068	0.006866
55.331	0.006409	0.089722	0.054016	0.006409	-0.017548	-0.018463	0.02243	-0.014496	0.046082	0.12726	0.021667	0.008698	-0.02655	0.023804	-0.092163	0.041809	-0.000916	0.009308	-0.44937	0.16647	-0.049744	-0.034943	0.015869	-0.06073	0.009003	-0.010071	0.21744	-0.015717	0.076599	-0.025177	-0.00061	0.013733
55.332	0.007172	0.088654	0.015564	0.016022	0.017395	-0.03418	-0.031281	-0.010834	0.031738	0.086975	0.024872	0.002899	0.009003	0.01358	-0.050049	-0.022888	-0.002594	0.005798	-0.61752	0.14099	-0.009613	-0.019684	0.027924	-0.11276	0.010071	-0.020447	0.24704	-0.009155	-0.041504	-0.000305	-0.002747	0.010986
55.333	-0.03479	0.077515	-0.008087	0.017242	0.024719	-0.018005	-0.061646	0.001068	0.025635	-0.036926	0.017395	0.000153	0.040283	0.083008	-0.013733	-0.050659	-0.015564	-0.049438	0.27298	0.043182	0.031281	0.010376	0.008698	-0.10101	0.009766	-0.023804	0.21393	-0.01358	-0.13519	-0.005341	-0.000916	0.010529
55.334	-0.025787	0.079803	0.054474	0.011902	0.021667	-0.015564	0.008698	0.002594	0.0177	-0.12329	0.009308	0.016174	0.04425	0.10742	0.005341	-0.048676	-0.007935	-0.039368	1.9044	0.002899	0.014343	0.016327	0.036011	-0.10605	0.019226	-0.029907	0.29877	-0.012512	-0.11246	-0.035706	0.001831	-0.00061
55.335	0.013275	0.061493	0.004883	0.016937	0.018616	-0.009918	-0.043335	0.000763	-0.007019	-0.22003	0.00946	0.014954	0.016327	0.002594	-0.001373	-0.038605	-0.010529	-0.14572	1.8546	0.009918	-0.057678	0.019684	0.017395	-0.090027	0.011749	-0.028381	0.20371	-0.005798	-0.088959	-0.083618	-0.008545	0.01236
55.336	0.016785	0.063934	0.007935	-0.001831	0.013275	-0.036926	-0.021515	0.002899	-0.003357	-0.094299	0.006714	0.12054	-0.088501	-0.002594	0.021362	-0.028381	-0.001221	-0.24155	0.7341	0.020294	-0.1062	0.03067	-0.017548	-0.068817	0.005951	-0.023193	-0.14328	-0.012207	-0.049744	-0.058594	-0.006561	0.007477
55.337	-0.001373	0.090179	0.10712	0.001678	0.02533	-0.026093	0.027313	-0.005493	-0.010223	0.070038	0.005493	-0.037994	-0.18097	0.2063	0.002136	-0.016022	-0.000153	-0.17288	0.26199	-0.001526	-0.13809	0.00946	-0.023193	-0.054779	0.011139	-0.021667	0.004578	-0.010071	-0.011139	-0.062256	-0.002136	0.020142
55.338	0.017395	0.071411	0.15961	-0.019379	0.010986	-0.011139	-0.024109	-0.017395	-0.00473	0.053864	-0.002136	-0.040741	-0.16312	0.20294	0.025177	-0.014038	0.036469	-0.14023	-0.00473	0.002747	-0.037994	-0.055695	0.010834	-0.099487	0.011749	-0.025024	0.009613	-0.015106	0.070343	-0.044556	0.000305	0.00473
55.339	0.007935	0.065002	0.12024	-0.008698	0.010223	-0.00473	-0.036163	-0.001526	-0.021973	-0.1799	-0.002289	-0.014191	-0.085449	0.048981	0.046997	-0.010376	0.052032	-0.078278	0.097656	0.013428	0.25848	-0.10254	0.00946	-0.088501	-0.010071	-0.021667	0.2681	-0.00412	0.005188	-0.055389	-0.000153	-0.003357
55.34	0.005035	0.06134	0.079346	0.002136	0.005188	0.029907	-0.058746	0.018158	0.069885	-0.42252	-0.013275	-0.017395	0.15305	-0.012512	0.14816	0.019226	0.045166	-0.10635	0.051575	-0.034332	0.2507	-0.11505	-0.01709	-0.11581	-0.019531	-0.029297	-0.067291	-0.010681	-0.027008	0.041962	-0.000916	0.001373
55.341	0.002747	0.098419	0.15732	0.019531	0.00351	0.057068	0.024567	0.027771	0.18127	-0.38544	0.043793	0.061035	0.14435	-0.068817	0.038147	0.000305	-0.003967	-0.103	-0.00473	-0.055847	0.12817	-0.065308	-0.024261	-0.04425	-0.021362	-0.029144	-0.23743	-0.00946	-0.017395	0.058594	-0.001831	0.00351
55.342	-0.007782	0.041962	0.12924	0.046234	0.002289	0.045013	0.1088	0.030823	0.12528	0.31326	0.02182	0.13199	0.072479	-0.079498	-0.11902	0.013275	-0.052795	-0.13123	0.053864	-0.036926	-0.18906	0.052185	-0.030518	-0.036163	-0.029297	-0.021973	-0.11658	-0.00946	0.000916	0.029144	-0.002747	0.000153
55.343	0.004578	0.018463	0.059662	0.032349	0.000763	0.037842	0.003357	0.018158	0.13733	0.56061	-0.011139	-0.085297	0.14465	0.050659	-0.091858	-0.026398	-0.032196	-0.13657	-0.10529	0.039063	-0.072479	0.018768	0.003357	-0.08194	-0.02182	-0.02121	-0.041046	-0.003662	-0.044403	-0.002899	0.004272	0.002747
55.344	-0.00061	0.037842	0.061035	-0.009613	0.010834	-0.002136	-0.061493	-0.001526	0.21515	0.14175	-0.030823	-0.075378	0.15137	-0.017395	-0.087738	-0.10498	-0.001984	-0.080566	0.007172	0.066833	-0.026855	0.026703	-0.017242	-0.098877	-0.003052	-0.020752	0.00473	-0.005951	-0.046997	-0.026398	-0.010986	0.001984
55.345	0.00473	0.027924	0.10422	-0.00885	0.009613	0.011444	-0.047913	-0.020294	0.31296	-0.11993	-0.01236	-0.044708	0.076752	-0.2034	-0.019684	-0.10239	0.039673	-0.078735	0.076294	0.004883	-0.087128	0.035248	0.002899	-0.112	-0.02655	-0.016327	0.076599	0.003052	0.007324	-0.041351	0.004425	0.001221
55.346	0.007935	0.012054	0.063477	0.004425	0.009613	-0.033569	-0.063934	-0.012054	0.289	-0.006409	0.063019	0.018616	0.027618	-0.10452	0.10346	-0.61233	0.056763	-0.10712	0.26993	-0.14084	-0.05188	-0.004425	-0.020447	-0.12268	-0.027313	-0.00946	-0.019684	-0.00824	0.045166	-0.067902	0.000916	0.006256
55.347	0.007935	0.017395	0.078278	-0.001831	0.0177	-0.042419	-0.018921	-0.019836	0.010681	-0.047607	0.096741	0.079651	0.017395	0.27878	0.026093	0.14542	0.034485	-0.11032	0.271	-0.074615	0.010834	-0.033417	0.018921	-0.13534	-0.002747	-0.013275	0.057831	-0.007019	0.005646	-0.039825	-0.000916	0.002289
55.348	0.011902	-0.014191	0.089722	-0.010529	0.013428	-0.036774	0.031281	-0.041809	-0.30441	-0.049744	0.1503	-0.000153	-0.042267	0.37628	0.092926	0.10895	-0.011292	-0.074768	-0.20905	0.034485	0.092468	-0.021057	-0.006256	-0.1004	0.014801	-0.02182	0.087585	-0.006866	-0.012512	-0.034027	-0.003662	0.000458
55.349	0.007477	-0.019226	0.1239	0.013123	0.010223	-0.028687	-0.016479	-0.022125	-0.34683	-0.033417	0.19486	0.000458	-0.066528	0.41061	0.39002	-0.094757	-0.022888	-0.084686	-0.80414	-0.005341	0.07782	0.07309	-0.004578	-0.060883	0.01358	-0.023346	0.088196	-0.00824	-0.068817	-0.045624	-0.002899	0.002289
55.35	-0.006409	-0.041046	0.093231	0.021057	0.008392	-0.023499	0.034332	-0.008545	-0.23712	-0.043793	0.27725	0.014038	-0.048828	0.32577	0.30579	0.27191	-0.037231	-0.084381	-0.75485	-0.085602	-0.044861	0.066528	0.022278	-0.092468	0.0177	-0.024567	0.040131	-0.00824	-0.072021	-0.090179	-0.003357	0.011902
55.351	-0.000458	-0.014191	0.12924	0.032654	0.001831	0.000153	0.10696	-0.01236	-0.066833	-0.028687	0.32577	0.008392	-0.045624	0.043793	-0.38391	0.094452	-0.019684	-0.043488	-0.33905	-0.00061	-0.036926	0.053101	-0.004578	-0.065308	0.013885	-0.020905	0.070496	-0.003815	-0.003357	-0.093994	-0.000305	-0.000305
55.352	-0.00824	-0.02533	0.15656	0.016479	0.003815	-0.001678	0.15579	-0.00412	-0.088959	-0.055847	0.053864	0.004272	0.017548	0.030823	-0.39795	0.0354	-0.040283	0.000305	0.12131	0.14465	-0.02655	0.11368	-0.019226	-0.022736	0.005188	-0.021057	0.11658	-0.003357	-0.021362	-0.084381	0.00473	0.000763
55.353	-0.001373	-0.03952	0.043182	0.023956	0.014954	0.005493	0.16098	-0.00473	-0.11932	-0.054169	-0.1831	-0.013428	0.067444	0.18158	-0.46448	0.028992	-0.041046	-0.042877	0.71732	0.041199	0.038147	0.11871	-0.018311	-0.017242	-0.007477	-0.027924	0.082855	-0.005646	-0.023041	0.020599	0.001221	0.001984
55.354	0.003204	-0.007477	0.041809	0.001984	0.006866	-0.001526	0.12375	-0.010529	-0.11017	-0.027924	-0.34653	-0.011597	0.1358	0.12451	-0.34347	0.013275	-0.031128	-0.047913	0.10056	0.049438	-0.055847	0.093689	-0.045624	0.003204	-0.018158	-0.027313	-0.00412	-0.010834	0.000763	0.041962	0	-0.000305
55.355	0.004425	-0.051727	0.031738	0.007477	0.007782	-0.014191	0.084229	0.003052	-0.092468	0.00824	-0.23636	-0.009308	0.080414	-0.021515	-0.1268	-0.012665	-0.017242	-0.11719	-0.041046	-0.029907	0.00061	0.10056	0.004883	-0.035553	-0.009155	-0.026855	0.069733	-0.008392	-0.047913	-0.003357	0.00351	-0.003204
55.356	-0.001221	-0.082092	0.008392	0.01297	0.010529	-0.011902	0.045013	-0.000763	-0.10696	-0.01358	-0.13458	-0.009003	0.11032	-0.037384	-0.15396	-0.000458	-0.020294	-0.088959	0.041656	-0.076294	0.065308	0.071716	-0.027618	-0.001526	0.002289	-0.031586	0.077362	-0.003967	-0.031281	-0.013733	0.000153	-0.002136
55.357	0.000916	-0.088196	-0.054626	-0.001526	0.008392	-0.019073	0.028381	0.006866	-0.066681	-0.030975	-0.074921	-0.010071	0.088501	-0.037537	-0.088501	-0.001831	-0.009155	-0.024109	0.78888	-0.16998	0.014191	0.049286	-0.013733	-0.027771	0.009613	-0.032349	0.061951	-0.004883	0.065918	0.008087	-0.000305	-0.000916
55.358	0.005646	-0.058289	-0.046539	-0.010223	0.009155	-0.018005	0.014343	0.008392	-0.034485	-0.003052	-0.060272	0.001831	0.057983	-0.11276	-0.056	-0.009308	0.013428	-0.041504	0.95306	-0.15228	-0.029144	0.020752	0.021057	-0.054779	-0.010834	-0.031433	0.071411	-0.00946	0.11566	0.006256	-0.002289	-0.001984
55.359	0.00946	-0.027466	0.015106	-0.014038	0.00946	-0.011444	-0.002899	-0.013885	-0.007935	0.014648	-0.089722	-0.00412	-0.007172	-0.016785	0.009003	-0.015259	0.018616	-0.064697	0.40253	-0.08194	-0.051422	0.003662	0.014038	-0.09903	-0.019989	-0.039673	0.077209	-0.00824	0.078735	-0.030518	-0.001526	-0.005493
55.36	0.006714	-0.05127	0.096436	-0.011902	0.012512	-0.021362	-0.054932	-0.016022	0.019073	0.005493	-0.12238	-0.00412	-0.024872	0.070038	0.56107	-0.010071	0.043488	-0.11063	0.067596	0.1181	-0.14755	-0.005035	0.006256	-0.13214	-0.037842	-0.047607	0.074463	-0.00061	0.022583	-0.037537	-0.000153	0.002289
55.361	0.003052	-0.066833	0.1738	-0.014648	0.008087	-0.015717	-0.056763	-0.003967	0.023499	-0.020752	-0.028381	-0.005646	0.025177	0.10346	-0.062256	0.002289	0.047607	-0.095825	-0.093231	0.2301	-0.11978	0.087585	0.021362	-0.099792	-0.010834	-0.06134	0.085907	-0.006866	-0.003967	-0.063934	-0.00412	0.001984
55.362	-0.006256	-0.044861	0.15747	-0.00946	0.005646	-0.001373	-0.10605	-0.010376	0.017548	-0.036316	-0.011902	-0.006409	0.067902	0.099945	-0.025024	0.008698	-0.001373	-0.016632	-0.15305	0.15442	-0.031433	0.15243	-0.056152	-0.024872	0.014954	-0.072479	0.072632	-0.006256	0.046234	-0.072479	-0.003662	0.009155
55.363	0.000153	-0.043335	0.12711	-0.011597	0.00473	0.001221	-0.10498	-0.013733	-0.032501	-0.029449	0.001984	-0.002899	0.027161	0.073395	-0.089417	0.010071	-0.011902	-0.03067	0.21545	0.022278	0.006866	0.12924	-0.048065	-0.015411	0.013885	-0.088654	0.059967	-0.002594	0.048676	-0.055237	-0.003052	0.007629
55.364	-0.001526	-0.067444	0.13947	-0.018005	0.005188	-0.002899	-0.10574	-0.015411	-0.11383	-0.018158	-0.11948	-0.005951	0.012817	0.061493	-0.1294	0.000305	-0.00412	0.013275	0.58014	-0.017242	0.18387	0.10025	-0.028839	-0.073853	-0.013275	-0.091248	0.053864	-0.003204	0.11475	-0.062408	-0.001526	0.003204
55.365	-0.001373	-0.040131	0.075836	0.00412	0.013123	-0.010376	-0.091248	-0.011902	-0.095673	0.009918	-0.13458	-0.00412	0.031433	-0.040894	-0.055237	-0.006561	-0.007782	-0.08606	0.11093	0.008087	-0.070343	0.11322	-0.04837	-0.005035	0.000763	-0.0737	0.055389	-0.002594	0.029602	-0.057983	-0.002747	0.009766
